HIERARCHY
ROOT Hips
{
	OFFSET 0.000000 0.000000 0.000000
	CHANNELS 6 Xposition Yposition Zposition Zrotation Yrotation Xrotation 
	JOINT LHipJoint
	{
		OFFSET 0.000000 0.000000 0.000000
		CHANNELS 3 Zrotation Yrotation Xrotation
		JOINT LeftUpLeg
		{
			OFFSET 1.363060 -1.794630 0.839290
			CHANNELS 3 Zrotation Yrotation Xrotation
			JOINT LeftLeg
			{
				OFFSET 2.448110 -6.726130 0.000000
				CHANNELS 3 Zrotation Yrotation Xrotation
				JOINT LeftFoot
				{
					OFFSET 2.562200 -7.039590 0.000000
					CHANNELS 3 Zrotation Yrotation Xrotation
					JOINT LeftToeBase
					{
						OFFSET 0.157640 -0.433110 2.322550
						CHANNELS 3 Zrotation Yrotation Xrotation
						End Site
						{
							OFFSET 0.000000 0.000000 0.000000
						}
					}
				}
			}
		}
	}
	JOINT RHipJoint
	{
		OFFSET 0.000000 0.000000 0.000000
		CHANNELS 3 Zrotation Yrotation Xrotation
		JOINT RightUpLeg
		{
			OFFSET -1.305520 -1.794630 0.839290
			CHANNELS 3 Zrotation Yrotation Xrotation
			JOINT RightLeg
			{
				OFFSET -2.542530 -6.985550 0.000000
				CHANNELS 3 Zrotation Yrotation Xrotation
				JOINT RightFoot
				{
					OFFSET -2.568260 -7.056230 0.000000
					CHANNELS 3 Zrotation Yrotation Xrotation
					JOINT RightToeBase
					{
						OFFSET -0.164730 -0.452590 2.363150
						CHANNELS 3 Zrotation Yrotation Xrotation
						End Site
						{
							OFFSET 0.000000 0.000000 0.000000
						}
					}
				}
			}
		}
	}
}
MOTION
Frames: 25
Frame Time: 0.008333
3.318946 17.476377 0.089669 -16.723481 86.899297 -1.979543 -10.674065 2.745624 2.951296 -8.400607 2.222938 -14.175183 -2.033609 -0.453368 12.961579 0.760451 4.002012 -5.697510 0.133200 0.000000 -42.521001 10.657382 -1.587767 -0.946413 6.553110 -11.835348 -31.300809 -0.259167 -3.594608 56.991432 -1.437430 -7.036177 -0.892845 -0.944300 0.000000 -61.786400
3.482335 17.482268 0.097070 -24.319715 87.170225 -9.476280 -10.680846 2.770579 2.895407 -7.978730 2.354719 -13.577711 -1.989326 -0.450091 12.742850 0.711665 3.783339 -5.243341 0.163600 -0.000000 -43.150000 10.589565 -1.532755 -0.929342 7.261686 -11.834950 -32.440135 -0.074917 -3.616597 56.181378 -1.436028 -6.959099 -2.038696 -0.827900 -0.000000 -61.422400
3.647053 17.486232 0.106774 -31.670818 87.401202 -16.684189 -10.715289 2.778704 2.841213 -7.599624 2.484978 -13.062122 -1.945360 -0.448347 12.604858 0.666884 3.584264 -4.808443 0.189900 -0.000000 -43.725900 10.484118 -1.501993 -0.869254 7.919510 -11.707292 -33.585143 0.120357 -3.630509 55.218641 -1.435017 -6.836338 -3.116341 -0.714200 -0.000000 -60.767600
3.813301 17.488436 0.118969 -37.974814 87.572702 -22.799638 -10.776318 2.781823 2.791822 -7.268638 2.625078 -12.627714 -1.904876 -0.445561 12.528045 0.627014 3.405763 -4.408382 0.211500 0.000000 -44.328799 10.345177 -1.478158 -0.765145 8.514511 -11.433936 -34.726913 0.318028 -3.625461 54.109300 -1.432402 -6.663881 -4.091807 -0.609600 0.000000 -59.833401
3.981135 17.488975 0.133931 -42.559687 87.680688 -27.152024 -10.849529 2.790232 2.748106 -6.989053 2.776392 -12.263183 -1.870225 -0.440638 12.488870 0.593156 3.253436 -4.049656 0.229000 0.000001 -45.033500 10.188956 -1.446305 -0.617173 9.035710 -11.008207 -35.856248 0.512037 -3.595913 52.859369 -1.427169 -6.447108 -4.937782 -0.519800 -0.000000 -58.802100
4.150615 17.487981 0.151489 -45.421637 87.730742 -29.741625 -10.923630 2.805624 2.706285 -6.746422 2.949121 -11.957538 -1.841853 -0.434246 12.473405 0.563804 3.116585 -3.733062 0.242400 0.000001 -45.911501 10.027518 -1.405013 -0.426114 9.490233 -10.430576 -36.961564 0.702457 -3.542625 51.473644 -1.419510 -6.196020 -5.664548 -0.445500 0.000000 -57.672500
4.321656 17.485539 0.171606 -46.578395 87.731222 -30.593276 -10.991286 2.827945 2.663226 -6.535716 3.140681 -11.690054 -1.819416 -0.427210 12.463991 0.538281 2.994456 -3.448550 0.252900 -0.000000 -47.001700 9.868350 -1.354556 -0.195248 9.874740 -9.712323 -38.032113 0.890216 -3.467214 49.955451 -1.410567 -5.923566 -6.289134 -0.385900 -0.000000 -56.644600
4.494043 17.481692 0.194226 -46.135897 87.688259 -29.824510 -11.048706 2.856249 2.615276 -6.355817 3.342249 -11.432537 -1.801884 -0.419675 12.441847 0.516329 2.891343 -3.178414 0.262501 -0.000000 -48.305600 9.714889 -1.295536 0.068118 10.184059 -8.875261 -39.055240 1.078426 -3.371343 48.311426 -1.400974 -5.633033 -6.858393 -0.335500 0.000000 -55.765100
4.668114 17.476458 0.218475 -45.019696 87.598212 -28.363267 -11.105958 2.883781 2.558144 -6.168846 3.582804 -11.193910 -1.786770 -0.411791 12.421849 0.492939 2.770619 -2.911305 0.269500 0.000000 -49.823400 9.556697 -1.243619 0.367454 10.453837 -7.915299 -40.016895 1.272867 -3.254257 46.517154 -1.395856 -5.350886 -7.400218 -0.292501 -0.000000 -55.249900
4.843521 17.469751 0.244691 -43.063612 87.467312 -26.060183 -11.157534 2.913384 2.489466 -5.994105 3.833293 -10.930300 -1.773139 -0.401976 12.379401 0.470627 2.658487 -2.619815 0.277499 -0.000000 -51.473200 9.398186 -1.191803 0.689009 10.662039 -6.873504 -40.899394 1.477036 -3.114336 44.579153 -1.393302 -5.057203 -7.973337 -0.248200 -0.000001 -55.039800
5.020488 17.461467 0.272523 -40.788036 87.296752 -23.442841 -11.208256 2.943009 2.406743 -5.816678 4.102330 -10.636762 -1.759261 -0.389067 12.322603 0.447404 2.540905 -2.287752 0.286200 -0.000000 -53.186200 9.233714 -1.146516 1.030956 10.824684 -5.764005 -41.684365 1.695348 -2.947334 42.473625 -1.394656 -4.753863 -8.596928 -0.200300 0.000000 -55.200300
5.199196 17.451359 0.301939 -38.421317 87.092492 -20.748225 -11.258937 2.973268 2.308679 -5.635271 4.387859 -10.301556 -1.744170 -0.371636 12.254800 0.423032 2.416464 -1.900230 0.295900 0.000000 -54.878799 9.062078 -1.108834 1.388899 10.945370 -4.610485 -42.352113 1.929884 -2.747756 40.181149 -1.398256 -4.430986 -9.271817 -0.148100 0.000001 -55.697300
5.379910 17.439119 0.333070 -36.046846 86.864080 -18.067650 -11.308869 3.005999 2.195585 -5.454912 4.685122 -9.915107 -1.727636 -0.348530 12.179800 0.397859 2.286690 -1.447857 0.306500 0.000000 -56.476300 8.884862 -1.077809 1.758505 11.022330 -3.440144 -42.885205 2.179153 -2.509892 37.688218 -1.400159 -4.077633 -9.967227 -0.094400 0.000000 -56.457100
5.562932 17.424355 0.366108 -33.706039 86.622943 -15.451207 -11.357342 3.043171 2.067973 -5.279892 4.993472 -9.469051 -1.709960 -0.318929 12.102878 0.372156 2.150394 -0.928726 0.317200 0.000001 -57.928000 8.705647 -1.052187 2.134437 11.054023 -2.281740 -43.266071 2.437821 -2.229669 34.994104 -1.394153 -3.685654 -10.623373 -0.045300 0.000000 -57.347000
5.748543 17.406612 0.401346 -31.307428 86.382642 -12.816762 -11.402087 3.087791 1.928483 -5.122297 5.306619 -8.954223 -1.692097 -0.282703 12.025387 0.347037 2.012928 -0.347358 0.327500 0.000001 -59.211100 8.531959 -1.028678 2.508936 11.032473 -1.170366 -43.485835 2.695604 -1.907630 32.125762 -1.371491 -3.249851 -11.155968 -0.009100 0.000000 -58.231700
5.937309 17.385396 0.439455 -28.643889 86.161111 -9.955234 -11.438796 3.144857 1.787106 -5.005219 5.604383 -8.379284 -1.675877 -0.240929 11.952959 0.324411 1.887095 0.282529 0.337700 0.000000 -60.327400 8.375510 -1.003025 2.876044 10.943041 -0.144987 -43.567852 2.938048 -1.552331 29.154810 -1.322690 -2.769284 -11.475622 0.006000 0.000000 -58.997700
6.128736 17.360454 0.480002 -25.783306 85.958446 -6.969011 -11.468749 3.214109 1.637936 -4.918269 5.904039 -7.697626 -1.660770 -0.193540 11.869875 0.304140 1.769149 0.952407 0.346699 -0.000000 -61.337600 8.244006 -0.975794 3.211785 10.798758 0.754773 -43.479314 3.151818 -1.180829 26.164767 -1.238515 -2.252758 -11.483831 -0.006100 -0.000000 -59.765700
6.323634 17.331492 0.523597 -22.508373 85.788861 -3.621847 -11.486424 3.301182 1.500622 -4.887440 6.171022 -6.949655 -1.648384 -0.143075 11.790747 0.288543 1.678765 1.637856 0.356400 -0.000000 -62.292700 8.150075 -0.945126 3.512211 10.592397 1.497560 -43.300612 3.324440 -0.821116 23.319226 -1.114877 -1.700995 -11.148965 -0.043200 -0.000000 -60.398900
6.521806 17.298572 0.569819 -18.884000 85.646023 0.012398 -11.491756 3.406316 1.380041 -4.904897 6.404392 -6.131874 -1.637574 -0.090590 11.714431 0.277986 1.620152 2.324200 0.367800 -0.000000 -63.287000 8.098576 -0.914586 3.762057 10.344618 2.065406 -43.063029 3.450038 -0.504758 20.775367 -0.952932 -1.122013 -10.461856 -0.097800 -0.000000 -61.019499
6.723154 17.262005 0.618066 -15.037203 85.519396 3.812388 -11.485404 3.528820 1.283586 -4.959450 6.599224 -5.264085 -1.626735 -0.037039 11.650333 0.272618 1.595698 2.997924 0.382000 -0.000001 -64.416400 8.089469 -0.888958 3.955224 10.078257 2.464843 -42.818810 3.528174 -0.261125 18.691927 -0.761337 -0.526464 -9.467819 -0.157100 -0.000000 -61.635300
6.927396 17.222358 0.667579 -11.171489 85.394623 7.584285 -11.470076 3.666033 1.215676 -5.032976 6.754000 -4.372429 -1.613627 0.017476 11.613810 0.272284 1.603828 3.651283 0.399300 0.000000 -65.768000 8.117225 -0.872901 4.091662 9.815887 2.724319 -42.615085 3.561545 -0.110877 17.198125 -0.554621 0.067984 -8.250610 -0.206699 0.000000 -62.215600
7.134276 17.180399 0.717576 -7.537154 85.261253 11.095955 -11.450883 3.814137 1.179379 -5.104232 6.869644 -3.497910 -1.596066 0.073536 11.632449 0.276152 1.634174 4.280599 0.418600 0.000000 -67.401799 8.172208 -0.870205 4.179770 9.573732 2.889765 -42.494721 3.553143 -0.062430 16.377378 -0.350424 0.635041 -6.917062 -0.235900 -0.000000 -62.669900
7.342979 17.137021 0.767261 -4.313194 85.112545 14.175315 -11.432438 3.968445 1.171679 -5.157459 6.944865 -2.659967 -1.571557 0.132780 11.726972 0.283936 1.680758 4.894498 0.439500 -0.000000 -69.330700 8.244469 -0.879947 4.223705 9.359019 2.999792 -42.472515 3.504131 -0.114216 16.269586 -0.163693 1.155536 -5.585877 -0.239200 -0.000000 -62.844400
7.552928 17.093072 0.816097 -1.625448 84.953029 16.707854 -11.419234 4.124723 1.190005 -5.179690 6.979240 -1.891656 -1.538071 0.197266 11.933326 0.294761 1.728877 5.503482 0.459400 0.000000 -71.510500 8.324802 -0.899079 4.231682 9.174139 3.086594 -42.556191 3.415082 -0.254623 16.865352 -0.006247 1.612273 -4.375225 -0.217900 0.000000 -62.522800
7.763067 17.049467 0.863732 0.519180 84.789908 18.683165 -11.412389 4.278898 1.226840 -5.166603 6.969273 -1.198335 -1.493327 0.269747 12.276558 0.308622 1.771519 6.130091 0.477000 -0.000000 -73.835900 8.407790 -0.920014 4.203248 9.017621 3.157759 -42.720747 3.287077 -0.466010 18.110727 0.116584 2.003641 -3.388492 -0.177200 -0.000000 -61.560000
